<svg xmlns="http://www.w3.org/2000/svg" viewBox="0 0 64 64" fill="none">
  <!-- Background circle -->
  <circle cx="32" cy="32" r="30" fill="#1a56c4"/>
  <!-- Clipboard/note body -->
  <rect x="18" y="20" width="28" height="30" rx="3" fill="white" opacity="0.95"/>
  <!-- Clipboard top clip -->
  <rect x="26" y="16" width="12" height="8" rx="2" fill="#F89B24"/>
  <!-- Lines on note -->
  <line x1="23" y1="29" x2="41" y2="29" stroke="#1a56c4" stroke-width="2.2" stroke-linecap="round"/>
  <line x1="23" y1="34" x2="41" y2="34" stroke="#1a56c4" stroke-width="2.2" stroke-linecap="round"/>
  <line x1="23" y1="39" x2="34" y2="39" stroke="#1a56c4" stroke-width="2.2" stroke-linecap="round"/>
  <!-- Sun rays (top right) -->
  <circle cx="46" cy="18" r="5" fill="#F89B24"/>
  <line x1="46" y1="10" x2="46" y2="12" stroke="#F89B24" stroke-width="1.5" stroke-linecap="round"/>
  <line x1="46" y1="24" x2="46" y2="26" stroke="#F89B24" stroke-width="1.5" stroke-linecap="round"/>
  <line x1="38" y1="18" x2="40" y2="18" stroke="#F89B24" stroke-width="1.5" stroke-linecap="round"/>
  <line x1="52" y1="18" x2="54" y2="18" stroke="#F89B24" stroke-width="1.5" stroke-linecap="round"/>
  <line x1="40.5" y1="12.5" x2="42" y2="14" stroke="#F89B24" stroke-width="1.5" stroke-linecap="round"/>
  <line x1="50" y1="22" x2="51.5" y2="23.5" stroke="#F89B24" stroke-width="1.5" stroke-linecap="round"/>
  <line x1="51.5" y1="12.5" x2="50" y2="14" stroke="#F89B24" stroke-width="1.5" stroke-linecap="round"/>
  <line x1="42" y1="22" x2="40.5" y2="23.5" stroke="#F89B24" stroke-width="1.5" stroke-linecap="round"/>
</svg>
